<!DOCTYPE svg PUBLIC "-//W3C//DTD SVG 1.1//EN" "http://www.w3.org/Graphics/SVG/1.1/DTD/svg11.dtd">
<!-- Uploaded to: SVG Repo, www.svgrepo.com, Transformed by: SVG Repo Mixer Tools -->
<svg fill="#508D50" version="1.1" id="Capa_1" xmlns="http://www.w3.org/2000/svg" xmlns:xlink="http://www.w3.org/1999/xlink" width="800px" height="800px" viewBox="0 0 235.509 235.51" xml:space="preserve">
<g id="SVGRepo_bgCarrier" stroke-width="0"/>
<g id="SVGRepo_tracerCarrier" stroke-linecap="round" stroke-linejoin="round"/>
<g id="SVGRepo_iconCarrier"> <g> <g> <path d="M231.133,194.43h-15.172c11.702-7.438,19.548-20.498,19.548-35.449c0-2.068-1.675-3.747-3.738-3.747h-75.637 c-0.316,0-0.505,0.261-0.806,0.328V77.874c0-7.079-3.502-13.141-8.647-17.26c5.069-2.128,8.647-7.129,8.647-12.964 c0-7.747-6.304-14.06-14.062-14.06H73.01c-6.374,0-11.545,4.336-13.274,10.135c-0.337-1.781-0.996-3.438-2.276-4.669 c-4.668-4.5-14.883-2.936-22.654,3.288c-0.369,0.309-0.667,0.653-1.02,0.96v-3.627c0-2.065-1.683-3.745-3.745-3.745 c-2.065,0-3.753,1.679-3.753,3.745v3.611c-0.344-0.307-0.627-0.643-1.004-0.944c-7.782-6.209-18.011-7.796-22.658-3.288 c-1.805,1.733-2.741,4.19-2.615,6.907c0.21,4.592,3.392,9.79,8.496,13.865c4.687,3.745,10.321,5.979,15.086,5.979 c0.982,0,1.821-0.249,2.695-0.437v8.414c-0.344-0.314-0.627-0.651-1.004-0.95c-7.766-6.217-18.011-7.787-22.658-3.282 c-1.805,1.737-2.741,4.194-2.615,6.905c0.21,4.599,3.392,9.786,8.496,13.852c4.679,3.761,10.315,6.007,15.078,6.007 c0.982,0,1.829-0.252,2.703-0.441v8.404c-0.344-0.309-0.627-0.645-1.004-0.944c-7.766-6.202-18.011-7.796-22.658-3.282 c-1.805,1.733-2.741,4.202-2.615,6.909c0.21,4.598,3.392,9.792,8.496,13.848c4.679,3.763,10.321,6.003,15.086,6.003 c0.982,0,1.821-0.261,2.695-0.437v8.411c-0.344-0.309-0.627-0.645-1.004-0.953c-7.766-6.192-18.011-7.759-22.658-3.278 c-1.805,1.731-2.733,4.184-2.615,6.896c0.21,4.608,3.384,9.782,8.496,13.861c4.679,3.76,10.315,6.012,15.078,6.012 c0.982,0,1.829-0.261,2.703-0.445v37.534h-11.94c-2.066,0-3.745,1.679-3.745,3.742c0,2.068,1.679,3.764,3.745,3.764h216.793 c2.064,0,3.751-1.695,3.751-3.764C234.884,196.101,233.206,194.43,231.133,194.43z M25.965,57.725 c-0.417,0.391-1.278,0.621-2.373,0.621c-3.07,0-7.049-1.669-10.407-4.352c-3.801-3.028-5.606-6.382-5.699-8.36 c-0.032-0.825,0.227-1.07,0.337-1.178c0.398-0.383,1.246-0.613,2.338-0.613c3.07,0,7.073,1.671,10.441,4.374 c3.799,3.027,5.589,6.376,5.677,8.354C26.318,57.378,26.057,57.612,25.965,57.725z M25.965,88.205 c-0.417,0.395-1.278,0.621-2.38,0.621c-3.07,0-7.055-1.655-10.399-4.35c-3.801-3.036-5.606-6.38-5.699-8.341 c-0.032-0.828,0.227-1.07,0.337-1.181c0.391-0.384,1.28-0.613,2.346-0.613c3.07,0,7.065,1.675,10.433,4.366 c3.799,3.04,5.589,6.382,5.677,8.352C26.318,87.86,26.057,88.121,25.965,88.205z M25.965,118.718 c-0.417,0.396-1.278,0.629-2.373,0.629c-3.07,0-7.049-1.671-10.413-4.364c-3.795-3.031-5.592-6.374-5.685-8.352 c-0.032-0.815,0.224-1.066,0.336-1.176c0.391-0.387,1.28-0.613,2.347-0.613c3.069,0,7.063,1.671,10.433,4.358 c3.799,3.045,5.588,6.388,5.676,8.36C26.318,118.381,26.057,118.609,25.965,118.718z M25.965,149.214 c-0.417,0.396-1.278,0.613-2.38,0.613c-3.07,0-7.055-1.655-10.399-4.34c-3.809-3.05-5.606-6.392-5.699-8.372 c-0.032-0.813,0.227-1.058,0.337-1.158c0.391-0.381,1.28-0.604,2.346-0.604c3.07,0,7.065,1.671,10.433,4.355 c3.799,3.05,5.589,6.384,5.677,8.348C26.318,148.861,26.057,149.105,25.965,149.214z M227.832,162.731 c-1.855,17.239-16.339,30.717-33.887,30.717c-17.524,0-32.023-13.478-33.863-30.717H227.832z M171.919,194.43h-23.283 c4.116-4.079,6.701-9.706,6.701-15.945v-4.2C158.603,182.656,164.45,189.677,171.919,194.43z M34.806,133.85 c-0.369,0.309-0.667,0.646-1.02,0.966v-8.416c0.878,0.169,1.726,0.445,2.715,0.445c4.765,0,10.41-2.24,15.08-6.003 c3.511-2.798,6.013-6.111,7.362-9.408v21.389c-0.421-0.806-0.824-1.61-1.483-2.239C52.807,126.091,42.584,127.626,34.806,133.85z M52.603,137.115c-0.096,1.98-1.885,5.33-5.692,8.372c-3.346,2.685-7.332,4.34-10.403,4.34c-1.108,0-1.97-0.217-2.382-0.613 c-0.096-0.092-0.357-0.353-0.323-1.158c0.092-1.964,1.881-5.306,5.681-8.348c3.362-2.685,7.355-4.355,10.419-4.355 c1.1,0,1.953,0.224,2.38,0.621C52.374,136.058,52.641,136.302,52.603,137.115z M36.507,96.332c4.759,0,10.403-2.246,15.08-5.999 c3.504-2.795,6.007-6.122,7.355-9.412v21.394c-0.421-0.817-0.824-1.617-1.483-2.254c-4.652-4.484-14.875-2.936-22.654,3.282 c-0.369,0.307-0.667,0.651-1.02,0.966v-8.425C34.671,96.082,35.511,96.332,36.507,96.332z M33.802,87.051 c0.092-1.962,1.881-5.312,5.681-8.352c3.362-2.683,7.355-4.366,10.419-4.366c1.1,0,1.953,0.23,2.364,0.621 c0.1,0.103,0.369,0.345,0.329,1.172c-0.094,1.964-1.894,5.314-5.691,8.35c-3.346,2.679-7.333,4.342-10.403,4.342 c-1.108,0-1.971-0.227-2.384-0.622C34.028,88.129,33.768,87.86,33.802,87.051z M147.839,154.841h-36.853v-14.122 c0.878,0.184,1.725,0.452,2.713,0.452c4.757,0,10.411-2.244,15.088-6.003c5.098-4.063,8.279-9.262,8.496-13.846 c0.12-2.721-0.821-5.182-2.617-6.913c-4.66-4.504-14.883-2.909-22.652,3.294c-0.376,0.309-0.667,0.646-1.02,0.967v-3.631 c0-2.064-1.683-3.747-3.753-3.747c-2.065,0-3.745,1.683-3.745,3.747v3.618c-0.345-0.309-0.637-0.646-1.004-0.954 c-7.783-6.195-18.009-7.79-22.66-3.277c-1.803,1.73-2.747,4.184-2.613,6.896c0.21,4.601,3.393,9.798,8.494,13.87 c4.689,3.751,10.323,5.986,15.088,5.986c0.981,0,1.813-0.244,2.695-0.444v14.114H66.44v-54.121h81.407L147.839,154.841 L147.839,154.841z M111.009,131.89c0.084-1.964,1.883-5.306,5.681-8.343c3.362-2.689,7.366-4.36,10.435-4.36 c1.082,0,1.948,0.22,2.353,0.621c0.101,0.096,0.36,0.345,0.329,1.162c-0.093,1.964-1.892,5.321-5.695,8.363 c-3.362,2.685-7.347,4.349-10.419,4.349c-1.1,0-1.962-0.213-2.376-0.613C111.227,132.968,110.967,132.699,111.009,131.89z M103.489,131.89c0.03,0.826-0.222,1.07-0.322,1.162c-0.409,0.401-1.28,0.621-2.364,0.621c-3.068,0-7.058-1.663-10.408-4.344 c-3.803-3.038-5.6-6.38-5.692-8.359c-0.038-0.825,0.227-1.07,0.336-1.179c0.399-0.385,1.259-0.612,2.338-0.612 c3.08,0,7.073,1.671,10.443,4.368C101.611,126.584,103.401,129.91,103.489,131.89z M52.603,106.631 c-0.096,1.97-1.894,5.32-5.692,8.359c-3.352,2.686-7.34,4.356-10.41,4.356c-1.102,0-1.963-0.232-2.37-0.629 c-0.094-0.093-0.356-0.337-0.32-1.15c0.09-1.964,1.881-5.322,5.68-8.359c3.362-2.687,7.356-4.36,10.417-4.36 c1.1,0,1.956,0.227,2.366,0.621C52.374,105.565,52.641,105.815,52.603,106.631z M66.432,162.322h81.407v16.154 c0,8.255-6.709,14.972-14.972,14.972H81.406c-8.253,0-14.974-6.717-14.974-14.972V162.322z M147.839,93.222H66.432V77.874 c0-8.248,6.712-14.968,14.974-14.968h51.462c8.263,0,14.972,6.712,14.972,14.968V93.222z M73.01,41.088h68.265 c3.619,0,6.564,2.943,6.564,6.562c0,3.623-2.945,6.566-6.564,6.566H73.01c-3.625,0-6.578-2.943-6.578-6.566 C66.432,44.031,69.386,41.088,73.01,41.088z M39.482,48.209c3.362-2.695,7.364-4.372,10.425-4.372 c1.094,0,1.947,0.226,2.358,0.627c0.1,0.1,0.369,0.345,0.329,1.17c-0.094,1.97-1.894,5.332-5.691,8.36 c-3.354,2.683-7.341,4.352-10.411,4.352c-1.1,0-1.963-0.23-2.368-0.621c-0.096-0.096-0.357-0.347-0.323-1.162 C33.894,54.593,35.683,51.23,39.482,48.209z M36.493,65.815c4.765,0,10.403-2.234,15.088-5.979 c3.793-3.04,6.516-6.683,7.75-10.247c0.713,4.949,3.783,9.153,8.248,11.024c-4.158,3.334-6.899,7.999-7.873,13.455 c-0.353-1.721-1.004-3.312-2.254-4.508c-4.653-4.475-14.875-2.936-22.654,3.282c-0.371,0.299-0.667,0.651-1.023,0.958v-8.421 C34.664,65.575,35.511,65.815,36.493,65.815z M33.786,156.889c0.886,0.176,1.726,0.437,2.721,0.437 c4.759,0,10.403-2.252,15.08-5.995c3.512-2.806,6.007-6.119,7.355-9.414v36.561c0,6.231,2.569,11.874,6.696,15.945H33.786V156.889 z"/> <path d="M162.759,152.784h13.244c2.08,0,3.767-1.683,3.767-3.746c0-2.064-1.679-3.747-3.767-3.747h-13.244 c-2.08,0-3.768,1.675-3.768,3.747C159,151.102,160.695,152.784,162.759,152.784z"/> <path d="M187.32,145.291c-2.063,0-3.763,1.675-3.763,3.755c0,2.067,1.695,3.755,3.763,3.755h13.249 c2.076,0,3.755-1.688,3.755-3.755c0-2.064-1.679-3.755-3.755-3.755H187.32z"/> <path d="M208.151,149.038c0,2.063,1.679,3.746,3.739,3.746h13.256c2.064,0,3.751-1.683,3.751-3.746 c0-2.064-1.679-3.747-3.751-3.747h-13.264C209.83,145.291,208.151,146.981,208.151,149.038z"/> <path d="M175.03,141.868h13.256c2.064,0,3.743-1.687,3.743-3.755c0-2.056-1.679-3.743-3.743-3.743H175.03 c-2.06,0-3.747,1.672-3.747,3.743C171.291,140.178,172.97,141.868,175.03,141.868z"/> <path d="M195.852,138.113c0,2.076,1.679,3.755,3.743,3.755h13.256c2.061,0,3.739-1.679,3.739-3.755 c0-2.056-1.679-3.743-3.739-3.743h-13.256C197.531,134.37,195.852,136.058,195.852,138.113z"/> <path d="M187.32,130.556h13.249c2.076,0,3.755-1.688,3.755-3.759c0-2.068-1.679-3.739-3.755-3.739H187.32 c-2.063,0-3.763,1.679-3.763,3.739C183.565,128.868,185.264,130.556,187.32,130.556z"/> </g> </g> </g>
</svg>